<svg width="142" height="142" viewBox="0 0 142 142" fill="none" xmlns="http://www.w3.org/2000/svg">
<path d="M103.588 32.0332V112.186C103.588 116.091 100.421 119.258 96.5156 119.258H44.0977C40.1927 119.258 37.0254 116.091 37.0254 112.186V32.0332C37.0254 28.1282 40.1927 24.9609 44.0977 24.9609C44.1304 24.9609 96.4829 24.9609 96.5156 24.9609C100.421 24.9609 103.588 28.1282 103.588 32.0332Z" fill="#FFF4F3"/>
<path d="M121.615 30.5078C125.445 30.5078 128.549 33.6113 128.549 37.4414C128.549 41.2715 125.445 44.375 121.615 44.375C117.785 44.375 114.682 41.2715 114.682 37.4414C114.682 33.6113 117.785 30.5078 121.615 30.5078Z" fill="white"/>
<path d="M18.998 92.9102C22.0627 92.9102 24.5449 95.3924 24.5449 98.457C24.5449 101.522 22.0627 104.004 18.998 104.004C15.9334 104.004 13.4512 101.522 13.4512 98.457C13.4512 95.3924 15.9334 92.9102 18.998 92.9102Z" fill="white"/>
<path d="M82.7871 19.4141C85.8518 19.4141 88.334 21.8963 88.334 24.9609C88.334 26.4919 87.7127 27.8786 86.7088 28.8826C85.7048 29.8866 84.318 30.5078 82.7871 30.5078H57.8262C54.7615 30.5078 52.2793 28.0256 52.2793 24.9609C52.2793 23.43 52.9005 22.0433 53.9045 21.0393C54.9085 20.0353 56.2952 19.4141 57.8262 19.4141H82.7871Z" fill="white"/>
<path d="M125.082 62.4023C126.231 62.4023 127.162 61.4711 127.162 60.3223C127.162 59.1735 126.231 58.2422 125.082 58.2422C123.933 58.2422 123.002 59.1735 123.002 60.3223C123.002 61.4711 123.933 62.4023 125.082 62.4023Z" fill="#1A6291"/>
<path d="M113.988 97.0703C115.137 97.0703 116.068 96.139 116.068 94.9902C116.068 93.8414 115.137 92.9102 113.988 92.9102C112.839 92.9102 111.908 93.8414 111.908 94.9902C111.908 96.139 112.839 97.0703 113.988 97.0703Z" fill="#1A6291"/>
<path d="M109.828 19.4141C110.977 19.4141 111.908 18.4828 111.908 17.334C111.908 16.1852 110.977 15.2539 109.828 15.2539C108.679 15.2539 107.748 16.1852 107.748 17.334C107.748 18.4828 108.679 19.4141 109.828 19.4141Z" fill="#1A6291"/>
<path d="M90.4141 130.352C91.5629 130.352 92.4941 129.42 92.4941 128.271C92.4941 127.123 91.5629 126.191 90.4141 126.191C89.2653 126.191 88.334 127.123 88.334 128.271C88.334 129.42 89.2653 130.352 90.4141 130.352Z" fill="#1A6291"/>
<path d="M81.4004 45.0684V52.002H74.4668V58.2422H67.5332V52.002H60.5996V45.0684H67.5332V38.8281H74.4668V45.0684H81.4004Z" fill="white"/>
<path d="M25.2383 63.7891C26.3871 63.7891 27.3184 62.8578 27.3184 61.709C27.3184 60.5602 26.3871 59.6289 25.2383 59.6289C24.0895 59.6289 23.1582 60.5602 23.1582 61.709C23.1582 62.8578 24.0895 63.7891 25.2383 63.7891Z" fill="#1A6291"/>
<path d="M18.3047 22.1875C19.4535 22.1875 20.3848 21.2562 20.3848 20.1074C20.3848 18.9586 19.4535 18.0273 18.3047 18.0273C17.1559 18.0273 16.2246 18.9586 16.2246 20.1074C16.2246 21.2562 17.1559 22.1875 18.3047 22.1875Z" fill="#1A6291"/>
<path d="M96.5156 120.645H44.0977C39.4333 120.645 35.6387 116.85 35.6387 112.186V32.0332C35.6387 27.3688 39.4333 23.5742 44.0977 23.5742H52.2793C53.045 23.5742 53.666 24.1952 53.666 24.9609C53.666 25.7267 53.045 26.3477 52.2793 26.3477H44.0977C40.9626 26.3477 38.4121 28.8981 38.4121 32.0332V112.186C38.4121 115.321 40.9626 117.871 44.0977 117.871H96.5156C99.6507 117.871 102.201 115.321 102.201 112.186V32.0332C102.201 28.8981 99.6507 26.3477 96.5156 26.3477H88.334C87.5682 26.3477 86.9473 25.7267 86.9473 24.9609C86.9473 24.1952 87.5682 23.5742 88.334 23.5742H96.5156C101.18 23.5742 104.975 27.3688 104.975 32.0332V112.186C104.975 116.85 101.18 120.645 96.5156 120.645Z" fill="#1A6291"/>
<path d="M82.7871 31.8945H57.8262C54.003 31.8945 50.8926 28.7841 50.8926 24.9609C50.8926 23.1099 51.614 21.3688 52.9238 20.0589C54.234 18.7487 55.9752 18.0273 57.8262 18.0273H82.7871C86.6103 18.0273 89.7207 21.1378 89.7207 24.9609C89.7207 26.8119 88.9993 28.5531 87.6894 29.863C86.3793 31.1732 84.6381 31.8945 82.7871 31.8945ZM57.8262 20.8008C56.7157 20.8008 55.6712 21.2337 54.8849 22.02C54.099 22.806 53.666 23.8505 53.666 24.9609C53.666 27.2548 55.5323 29.1211 57.8262 29.1211H82.7871C83.8976 29.1211 84.9421 28.6882 85.7283 27.9019C86.5143 27.1159 86.9473 26.0714 86.9473 24.9609C86.9473 22.667 85.081 20.8008 82.7871 20.8008H57.8262Z" fill="#1A6291"/>
<path d="M74.4668 59.6289H67.5332C66.7675 59.6289 66.1465 59.0079 66.1465 58.2422V53.3887H60.5996C59.8339 53.3887 59.2129 52.7677 59.2129 52.002V45.0684C59.2129 44.3026 59.8339 43.6816 60.5996 43.6816H66.1465V38.8281C66.1465 38.0624 66.7675 37.4414 67.5332 37.4414H74.4668C75.2325 37.4414 75.8535 38.0624 75.8535 38.8281V43.6816H81.4004C82.1661 43.6816 82.7871 44.3026 82.7871 45.0684V52.002C82.7871 52.7677 82.1661 53.3887 81.4004 53.3887H75.8535V58.2422C75.8535 59.0079 75.2325 59.6289 74.4668 59.6289ZM68.9199 56.8555H73.0801V52.002C73.0801 51.2362 73.7011 50.6152 74.4668 50.6152H80.0137V46.4551H74.4668C73.7011 46.4551 73.0801 45.8341 73.0801 45.0684V40.2148H68.9199V45.0684C68.9199 45.8341 68.2989 46.4551 67.5332 46.4551H61.9863V50.6152H67.5332C68.2989 50.6152 68.9199 51.2362 68.9199 52.002V56.8555Z" fill="#1A6291"/>
<path d="M70.3066 69.3359H48.1191C47.3534 69.3359 46.7324 68.715 46.7324 67.9492C46.7324 67.1835 47.3534 66.5625 48.1191 66.5625H70.3066C71.0724 66.5625 71.6934 67.1835 71.6934 67.9492C71.6934 68.715 71.0724 69.3359 70.3066 69.3359Z" fill="#1A6291"/>
<path d="M92.4941 77.6562H48.1191C47.3534 77.6562 46.7324 77.0356 46.7324 76.2695C46.7324 75.5035 47.3534 74.8828 48.1191 74.8828H92.4941C93.2599 74.8828 93.8809 75.5035 93.8809 76.2695C93.8809 77.0356 93.2599 77.6562 92.4941 77.6562Z" fill="#1A6291"/>
<path d="M92.4941 85.9766H48.1191C47.3534 85.9766 46.7324 85.3559 46.7324 84.5898C46.7324 83.8238 47.3534 83.2031 48.1191 83.2031H92.4941C93.2599 83.2031 93.8809 83.8238 93.8809 84.5898C93.8809 85.3559 93.2599 85.9766 92.4941 85.9766Z" fill="#1A6291"/>
<path d="M92.4941 94.2969H48.1191C47.3534 94.2969 46.7324 93.6762 46.7324 92.9102C46.7324 92.1441 47.3534 91.5234 48.1191 91.5234H92.4941C93.2599 91.5234 93.8809 92.1441 93.8809 92.9102C93.8809 93.6762 93.2599 94.2969 92.4941 94.2969Z" fill="#1A6291"/>
<path d="M92.4941 102.617H48.1191C47.3534 102.617 46.7324 101.996 46.7324 101.23C46.7324 100.464 47.3534 99.8438 48.1191 99.8438H92.4941C93.2599 99.8438 93.8809 100.464 93.8809 101.23C93.8809 101.996 93.2599 102.617 92.4941 102.617Z" fill="#1A6291"/>
<path d="M92.4941 110.938H48.1191C47.3534 110.938 46.7324 110.317 46.7324 109.551C46.7324 108.785 47.3534 108.164 48.1191 108.164H92.4941C93.2599 108.164 93.8809 108.785 93.8809 109.551C93.8809 110.317 93.2599 110.938 92.4941 110.938Z" fill="#1A6291"/>
<path d="M121.615 45.7617C117.027 45.7617 113.295 42.0292 113.295 37.4414C113.295 32.8536 117.027 29.1211 121.615 29.1211C126.203 29.1211 129.936 32.8536 129.936 37.4414C129.936 42.0292 126.203 45.7617 121.615 45.7617ZM121.615 31.8945C118.557 31.8945 116.068 34.3829 116.068 37.4414C116.068 40.5 118.557 42.9883 121.615 42.9883C124.674 42.9883 127.162 40.5 127.162 37.4414C127.162 34.3829 124.674 31.8945 121.615 31.8945Z" fill="#1A6291"/>
<path d="M18.998 105.391C15.1749 105.391 12.0645 102.28 12.0645 98.457C12.0645 94.6338 15.1749 91.5234 18.998 91.5234C22.8212 91.5234 25.9316 94.6338 25.9316 98.457C25.9316 102.28 22.8212 105.391 18.998 105.391ZM18.998 94.2969C16.7041 94.2969 14.8379 96.1628 14.8379 98.457C14.8379 100.751 16.7041 102.617 18.998 102.617C21.292 102.617 23.1582 100.751 23.1582 98.457C23.1582 96.1628 21.292 94.2969 18.998 94.2969Z" fill="#1A6291"/>
</svg>
