<svg width="16" height="14" viewBox="0 0 16 14" fill="none" xmlns="http://www.w3.org/2000/svg">
<path d="M11.9932 14H4.02441C2.0859 14 0.508789 12.528 0.508789 10.7188V6.09766C0.508789 4.28837 2.0859 2.81641 4.02441 2.81641H6.36816C6.69178 2.81641 6.9541 3.06124 6.9541 3.36328C6.9541 3.66532 6.69178 3.91016 6.36816 3.91016H4.02441C2.73207 3.91016 1.68066 4.89147 1.68066 6.09766V10.7188C1.68066 11.9249 2.73207 12.9062 4.02441 12.9062H11.9932C13.2855 12.9062 14.3369 11.9249 14.3369 10.7188V7.57422C14.3369 7.27218 14.5992 7.02734 14.9229 7.02734C15.2465 7.02734 15.5088 7.27218 15.5088 7.57422V10.7188C15.5088 12.528 13.9317 14 11.9932 14ZM15.5088 3.44531C15.5088 1.54555 13.8528 0 11.8174 0C9.78192 0 8.12598 1.54555 8.12598 3.44531C8.12598 5.34507 9.78192 6.89062 11.8174 6.89062C13.8528 6.89062 15.5088 5.34507 15.5088 3.44531ZM14.3369 3.44531C14.3369 4.74195 13.2066 5.79688 11.8174 5.79688C10.4281 5.79688 9.29785 4.74195 9.29785 3.44531C9.29785 2.14867 10.4281 1.09375 11.8174 1.09375C13.2066 1.09375 14.3369 2.14867 14.3369 3.44531Z" fill="black"/>
<path d="M8.00861 10.1698C7.25642 10.1698 6.50434 9.94637 5.87677 9.49963L3.08384 7.51734C2.82626 7.33452 2.77622 6.99141 2.9721 6.75101C3.16801 6.51057 3.5356 6.46387 3.79317 6.64672L6.58678 8.62947C7.42432 9.2257 8.59332 9.22567 9.43019 8.62996L10.4067 7.93281C10.6638 7.74933 11.0316 7.79505 11.2281 8.03493C11.4247 8.27482 11.3758 8.61807 11.1187 8.80154L10.1415 9.49914C9.51345 9.94626 8.76099 10.1698 8.00861 10.1698ZM12.4034 4.29297V2.59766C12.4034 2.29562 12.141 2.05078 11.8174 2.05078H11.2315C10.9079 2.05078 10.6455 2.29562 10.6455 2.59766C10.6455 2.8997 10.9079 3.14453 11.2315 3.14453V4.29297C11.2315 4.59501 11.4938 4.83984 11.8174 4.83984C12.141 4.83984 12.4034 4.59501 12.4034 4.29297Z" fill="#1A6291"/>
</svg>
