<svg width="54" height="47" viewBox="0 0 54 47" fill="none" xmlns="http://www.w3.org/2000/svg">
<path d="M14.3438 7.21429H14.69L14.8118 6.8902L16.109 3.43883C16.109 3.43876 16.109 3.4387 16.1091 3.43863C16.7734 1.67339 18.4737 0.5 20.3766 0.5H33.6129C35.5158 0.5 37.2161 1.67347 37.8805 3.43883L37.8809 3.43988L39.1887 6.89145L39.311 7.21429H39.6562H48.9375C51.4588 7.21429 53.5 9.24851 53.5 11.75V41.9643C53.5 44.4658 51.4588 46.5 48.9375 46.5H5.0625C2.54122 46.5 0.5 44.4658 0.5 41.9643V11.75C0.5 9.24851 2.54122 7.21429 5.0625 7.21429H14.3438ZM40.1562 26.8571C40.1562 19.6334 34.2557 13.7679 27 13.7679C19.7443 13.7679 13.8438 19.6334 13.8438 26.8571C13.8438 34.0809 19.7443 39.9464 27 39.9464C34.2557 39.9464 40.1562 34.0809 40.1562 26.8571ZM35.7812 26.8571C35.7812 31.6667 31.8416 35.5893 27 35.5893C22.1584 35.5893 18.2188 31.6667 18.2188 26.8571C18.2188 22.0476 22.1584 18.125 27 18.125C31.8416 18.125 35.7812 22.0476 35.7812 26.8571Z" fill="#8E8E8E" stroke="white"/>
</svg>
